<?xml version="1.0" encoding="utf-8"?>
<!-- Generator: Adobe Illustrator 19.0.1, SVG Export Plug-In . SVG Version: 6.00 Build 0)  -->
<svg version="1.1" id="Layer_1" xmlns="http://www.w3.org/2000/svg" xmlns:xlink="http://www.w3.org/1999/xlink" x="0px" y="0px"
	 viewBox="0 0 512 512" enable-background="new 0 0 512 512" xml:space="preserve">
<g>
	<defs>
		<path id="SVGID_1_" d="M432.2,512H79.8C35.9,512,0,476.1,0,432.2V79.8C0,35.9,35.9,0,79.8,0h352.4C476.1,0,512,35.9,512,79.8
			v352.4C512,476.1,476.1,512,432.2,512z"/>
	</defs>
	<clipPath id="SVGID_2_">
		<use xlink:href="#SVGID_1_"  overflow="visible"/>
	</clipPath>
	<g clip-path="url(#SVGID_2_)">
		<g>
			<defs>
				<rect id="SVGID_3_" width="512" height="512"/>
			</defs>
			<clipPath id="SVGID_4_">
				<use xlink:href="#SVGID_3_"  overflow="visible"/>
			</clipPath>
			<circle clip-path="url(#SVGID_4_)" fill="#F6EFA4" cx="256" cy="256" r="377"/>
		</g>
		<g>
			<defs>
				<rect id="SVGID_5_" x="-73.1" y="-54.1" width="677.1" height="677.1"/>
			</defs>
			<clipPath id="SVGID_6_">
				<use xlink:href="#SVGID_5_"  overflow="visible"/>
			</clipPath>
			<path clip-path="url(#SVGID_6_)" fill="#2FA6C4" d="M110.2,320.8c-3.5,20.1-6.6,39.5-9.5,58C86.6,346.9,77,313,71.4,276.1
				C83.4,291.6,96.5,306.5,110.2,320.8z M126.5,235.4c-4.8,22.7-9.1,45-13,66.6c-14.9-16.1-28.8-32.9-41.1-50.3
				C90.4,245.7,108.4,240.2,126.5,235.4z M158.1,107.4c-7.4,25.5-14.1,51.1-20.1,76.4c-19.6,12.2-38.8,25.3-57.9,39.3
				C102.6,177.2,128.4,139,158.1,107.4z M177.9,94.7c15.5,13.8,30.6,28,45.5,42.6c-22.7,10.7-45,22.5-66.9,35.4
				C162.9,146.8,170,120.7,177.9,94.7z M325.6,97.4c-29.9,9.4-59,20.4-87.4,33.1c-14.6-14.4-29.6-28.6-44.8-42.3
				C236.9,87.4,280.5,90.4,325.6,97.4z M443.6,201.8c-38.1-5-76-7.6-113.5-7.6c-10.3,0-20.6,0.2-30.8,0.6
				c-16.1-18-32.6-35.6-49.5-52.7c34.8-15.2,70.7-27.9,107.7-38.2C391.2,131.7,420.1,164.6,443.6,201.8z M441.3,222.7
				c-15.8,22.4-34.7,49.2-56.6,77.6c-23-31.4-47.2-61.7-72.5-90.9c43.6-0.9,87.8,1.8,132.9,8C443.8,219.1,442.5,220.9,441.3,222.7z
				 M435.3,374c-13.3-20.7-27.1-41-41.3-60.8c22.7-29.2,42.3-56.9,58.6-80C455,279.2,449.3,325.6,435.3,374z M384.1,325.7
				c14.8,20.8,29.1,42.1,42.9,63.8c-48.5,28.1-97.2,43.6-146.5,46.6C319.8,401.6,354.5,362.8,384.1,325.7z M246.5,436.2
				c-43.8-2.4-88.2-14.5-133.6-36.3c3.1-20.6,6.6-42.7,10.5-65.7C164.1,374.3,208.9,409,246.5,436.2z M146.6,214.9
				c1.6-7.1,3.2-14.2,4.9-21.4c27.3-16.7,55-31.6,83.5-44.7c15.2,15.3,30.1,30.9,44.7,47C234.7,198.5,190.3,204.9,146.6,214.9z
				 M101.4,226.6c10.5-7.5,21.1-14.6,31.7-21.5c-1,4.6-2.1,9.2-3.1,13.8C120.5,221.3,110.9,223.9,101.4,226.6z M143,231.3
				c49.2-11.9,98.9-19,149.4-21.2c28.9,32.8,56.5,67.1,82.5,102.8c-31.4,39.6-68.4,81.2-110.7,117.3c-41-29.3-92.5-68.5-137.6-114.4
				C131.4,288.6,136.8,260.2,143,231.3z M444.6,395.3c0-0.1,0.1-0.2,0.1-0.3c0.1-0.2,0.2-0.4,0.3-0.7
				c20.6-63.5,27.5-123.6,21.1-183.6c-0.1-0.7-0.2-1.3-0.5-1.9c0,0,0,0,0,0v0c-0.1-0.2-0.2-0.4-0.3-0.6l0,0c0,0,0,0,0,0c0,0,0,0,0,0
				c-0.1-0.2-0.2-0.4-0.3-0.5c-26.5-45.5-60.4-85.2-100.8-118.1c-1-0.9-2.3-1.4-3.6-1.7c-64.6-12.3-125.7-17-186.8-14.4
				c-0.4,0-0.9,0.1-1.3,0.2c0,0,0,0,0,0c0,0,0,0,0,0c0,0,0,0,0,0c-0.2,0-0.4,0.1-0.6,0.2h0c0,0,0,0,0,0h0c-1,0.3-2,0.9-2.8,1.6
				c-46.6,42.1-84.4,97.4-115.5,169.1c-0.6,1.2-0.8,2.6-0.6,4c5.3,59.3,20,111.3,44.9,159.2c0,0,0.1,0.1,0.1,0.1
				c0.1,0.1,0.2,0.2,0.2,0.4c0.2,0.3,0.3,0.5,0.5,0.8c0.1,0.1,0.2,0.2,0.3,0.4c0.2,0.2,0.5,0.5,0.7,0.7c0.1,0.1,0.2,0.2,0.3,0.3
				c0.4,0.3,0.8,0.5,1.2,0.8c54.3,26.9,108.6,40.5,161.6,40.5c4.6,0,9.2-0.1,13.8-0.3c55.6-2.5,111.2-20.3,165.2-52.8c0,0,0,0,0,0
				c0.4-0.2,0.7-0.5,1.1-0.8c0.1-0.1,0.2-0.2,0.3-0.3c0.2-0.2,0.5-0.5,0.7-0.8c0.1-0.1,0.1-0.2,0.2-0.3
				C444.2,396.1,444.4,395.7,444.6,395.3z"/>
		</g>
		<g>
			<defs>
				<rect id="SVGID_7_" x="-73.1" y="-54.1" width="677.1" height="677.1"/>
			</defs>
			<clipPath id="SVGID_8_">
				<use xlink:href="#SVGID_7_"  overflow="visible"/>
			</clipPath>
			<circle clip-path="url(#SVGID_8_)" fill="#1586AD" cx="174.1" cy="81.2" r="30.5"/>
		</g>
		<g>
			<defs>
				<rect id="SVGID_9_" x="-73.1" y="-54.1" width="677.1" height="677.1"/>
			</defs>
			<clipPath id="SVGID_10_">
				<use xlink:href="#SVGID_9_"  overflow="visible"/>
			</clipPath>
			<path clip-path="url(#SVGID_10_)" fill-rule="evenodd" clip-rule="evenodd" fill="#0E7AA4" d="M196.3,60.2
				c9,9.6,11.1,24.3,4.2,36.2c-6.9,12-20.7,17.5-33.5,14.5L196.3,60.2z"/>
		</g>
		<g>
			<defs>
				<rect id="SVGID_11_" x="-73.1" y="-54.1" width="677.1" height="677.1"/>
			</defs>
			<clipPath id="SVGID_12_">
				<use xlink:href="#SVGID_11_"  overflow="visible"/>
			</clipPath>
			<circle clip-path="url(#SVGID_12_)" fill="#68BED4" cx="174.1" cy="81.2" r="17.4"/>
		</g>
		<g>
			<defs>
				<rect id="SVGID_13_" x="-73.1" y="-54.1" width="677.1" height="677.1"/>
			</defs>
			<clipPath id="SVGID_14_">
				<use xlink:href="#SVGID_13_"  overflow="visible"/>
			</clipPath>
			<circle clip-path="url(#SVGID_14_)" fill="#1586AD" cx="104.5" cy="404.3" r="30.5"/>
		</g>
		<g>
			<defs>
				<rect id="SVGID_15_" x="-73.1" y="-54.1" width="677.1" height="677.1"/>
			</defs>
			<clipPath id="SVGID_16_">
				<use xlink:href="#SVGID_15_"  overflow="visible"/>
			</clipPath>
			<path clip-path="url(#SVGID_16_)" fill-rule="evenodd" clip-rule="evenodd" fill="#0E7AA4" d="M126.7,383.3
				c9,9.6,11.1,24.3,4.2,36.2c-6.9,12-20.7,17.5-33.5,14.5L126.7,383.3z"/>
		</g>
		<g>
			<defs>
				<rect id="SVGID_17_" x="-73.1" y="-54.1" width="677.1" height="677.1"/>
			</defs>
			<clipPath id="SVGID_18_">
				<use xlink:href="#SVGID_17_"  overflow="visible"/>
			</clipPath>
			<circle clip-path="url(#SVGID_18_)" fill="#68BED4" cx="104.5" cy="404.3" r="17.4"/>
		</g>
		<g>
			<defs>
				<rect id="SVGID_19_" x="-73.1" y="-54.1" width="677.1" height="677.1"/>
			</defs>
			<clipPath id="SVGID_20_">
				<use xlink:href="#SVGID_19_"  overflow="visible"/>
			</clipPath>
			<circle clip-path="url(#SVGID_20_)" fill="#1586AD" cx="458.5" cy="211.6" r="30.5"/>
		</g>
		<g>
			<defs>
				<rect id="SVGID_21_" x="-73.1" y="-54.1" width="677.1" height="677.1"/>
			</defs>
			<clipPath id="SVGID_22_">
				<use xlink:href="#SVGID_21_"  overflow="visible"/>
			</clipPath>
			<path clip-path="url(#SVGID_22_)" fill-rule="evenodd" clip-rule="evenodd" fill="#0E7AA4" d="M480.7,190.6
				c9,9.6,11.1,24.3,4.2,36.2c-6.9,12-20.7,17.5-33.5,14.5L480.7,190.6z"/>
		</g>
		<g>
			<defs>
				<rect id="SVGID_23_" x="-73.1" y="-54.1" width="677.1" height="677.1"/>
			</defs>
			<clipPath id="SVGID_24_">
				<use xlink:href="#SVGID_23_"  overflow="visible"/>
			</clipPath>
			<circle clip-path="url(#SVGID_24_)" fill="#68BED4" cx="458.5" cy="211.6" r="17.4"/>
		</g>
		<g>
			<defs>
				<rect id="SVGID_25_" x="-73.1" y="-54.1" width="677.1" height="677.1"/>
			</defs>
			<clipPath id="SVGID_26_">
				<use xlink:href="#SVGID_25_"  overflow="visible"/>
			</clipPath>
			<circle clip-path="url(#SVGID_26_)" fill="#1586AD" cx="437.7" cy="392" r="40.1"/>
		</g>
		<g>
			<defs>
				<rect id="SVGID_27_" x="-73.1" y="-54.1" width="677.1" height="677.1"/>
			</defs>
			<clipPath id="SVGID_28_">
				<use xlink:href="#SVGID_27_"  overflow="visible"/>
			</clipPath>
			<path clip-path="url(#SVGID_28_)" fill-rule="evenodd" clip-rule="evenodd" fill="#0E7AA4" d="M466.9,364.5
				c11.8,12.6,14.6,31.8,5.5,47.5c-9.1,15.7-27.2,23-43.9,19L466.9,364.5z"/>
		</g>
		<g>
			<defs>
				<rect id="SVGID_29_" x="-73.1" y="-54.1" width="677.1" height="677.1"/>
			</defs>
			<clipPath id="SVGID_30_">
				<use xlink:href="#SVGID_29_"  overflow="visible"/>
			</clipPath>
			<circle clip-path="url(#SVGID_30_)" fill="#68BED4" cx="437.7" cy="392" r="22.9"/>
		</g>
		<g>
			<defs>
				<rect id="SVGID_31_" x="-73.1" y="-54.1" width="677.1" height="677.1"/>
			</defs>
			<clipPath id="SVGID_32_">
				<use xlink:href="#SVGID_31_"  overflow="visible"/>
			</clipPath>
			<circle clip-path="url(#SVGID_32_)" fill="#1586AD" cx="60.4" cy="247.8" r="40.1"/>
		</g>
		<g>
			<defs>
				<rect id="SVGID_33_" x="-73.1" y="-54.1" width="677.1" height="677.1"/>
			</defs>
			<clipPath id="SVGID_34_">
				<use xlink:href="#SVGID_33_"  overflow="visible"/>
			</clipPath>
			<path clip-path="url(#SVGID_34_)" fill-rule="evenodd" clip-rule="evenodd" fill="#0E7AA4" d="M89.6,220.3
				c11.8,12.6,14.6,31.8,5.5,47.5c-9.1,15.7-27.2,23-43.9,19L89.6,220.3z"/>
		</g>
		<g>
			<defs>
				<rect id="SVGID_35_" x="-73.1" y="-54.1" width="677.1" height="677.1"/>
			</defs>
			<clipPath id="SVGID_36_">
				<use xlink:href="#SVGID_35_"  overflow="visible"/>
			</clipPath>
			<circle clip-path="url(#SVGID_36_)" fill="#68BED4" cx="60.4" cy="247.8" r="22.9"/>
		</g>
		<g>
			<defs>
				<rect id="SVGID_37_" x="-73.1" y="-54.1" width="677.1" height="677.1"/>
			</defs>
			<clipPath id="SVGID_38_">
				<use xlink:href="#SVGID_37_"  overflow="visible"/>
			</clipPath>
			<circle clip-path="url(#SVGID_38_)" fill="#1586AD" cx="359.3" cy="95.4" r="40.1"/>
		</g>
		<g>
			<defs>
				<rect id="SVGID_39_" x="-73.1" y="-54.1" width="677.1" height="677.1"/>
			</defs>
			<clipPath id="SVGID_40_">
				<use xlink:href="#SVGID_39_"  overflow="visible"/>
			</clipPath>
			<path clip-path="url(#SVGID_40_)" fill-rule="evenodd" clip-rule="evenodd" fill="#0E7AA4" d="M388.5,67.9
				c11.8,12.6,14.6,31.8,5.5,47.5c-9.1,15.7-27.2,23-43.9,19L388.5,67.9z"/>
		</g>
		<g>
			<defs>
				<rect id="SVGID_41_" x="-73.1" y="-54.1" width="677.1" height="677.1"/>
			</defs>
			<clipPath id="SVGID_42_">
				<use xlink:href="#SVGID_41_"  overflow="visible"/>
			</clipPath>
			<circle clip-path="url(#SVGID_42_)" fill="#68BED4" cx="359.3" cy="95.4" r="22.9"/>
		</g>
		<g>
			<path fill-rule="evenodd" clip-rule="evenodd" fill="#D5502F" d="M341.4,395.5l21.2,121.3c-65.4,0-130.9,0-196.3,0l21.2-121.3
				c6.7-32.9,46.5-47.6,77-47.6S334.7,362.5,341.4,395.5z"/>
			<path fill-rule="evenodd" clip-rule="evenodd" fill="#C93C18" d="M341.4,395.5l21.2,121.3h-135c30.9-31.5,54.4-72.6,65.8-120.1
				c3.4-14.3,5.6-28.5,6.6-42.6C319.9,361.3,337.2,374.7,341.4,395.5z"/>
			<circle fill="#D5502F" cx="264.5" cy="272.1" r="62.6"/>
			<path fill-rule="evenodd" clip-rule="evenodd" fill="#C93C18" d="M314.5,234.6c20.8,27.6,15.2,66.9-12.5,87.6
				c-18.5,13.9-42.2,16-62.1,7.5c0,0,20.1-8.8,34.1-41.7s15-73.4,15-73.4C298.8,218.7,307.7,225.4,314.5,234.6z"/>
		</g>
	</g>
</g>
<g>
	<g>
		<path fill="#B7B37B" d="M432.2,10c18.6,0,36.1,7.3,49.3,20.5C494.7,43.8,502,61.3,502,79.8v352.4c0,18.6-7.3,36.1-20.5,49.3
			c-13.2,13.2-30.7,20.5-49.3,20.5H79.8c-18.6,0-36.1-7.3-49.3-20.5C17.3,468.2,10,450.7,10,432.2V79.8c0-18.6,7.3-36.1,20.5-49.3
			C43.8,17.3,61.3,10,79.8,10H432.2 M432.2,0H79.8C35.9,0,0,35.9,0,79.8v352.4C0,476.1,35.9,512,79.8,512h352.4
			c43.9,0,79.8-35.9,79.8-79.8V79.8C512,35.9,476.1,0,432.2,0L432.2,0z"/>
	</g>
</g>
</svg>
