<?xml version="1.0" encoding="utf-8"?>
<!-- Generator: Adobe Illustrator 19.2.0, SVG Export Plug-In . SVG Version: 6.00 Build 0)  -->
<svg version="1.1" id="Layer_1" xmlns="http://www.w3.org/2000/svg" xmlns:xlink="http://www.w3.org/1999/xlink" x="0px" y="0px"
	 viewBox="0 0 900 548.6" style="enable-background:new 0 0 900 548.6;" xml:space="preserve">
<style type="text/css">
	.st0{clip-path:url(#SVGID_2_);}
	.st1{fill:none;stroke:#C1272D;}
	.st2{fill:#C1272D;}
	.st3{fill:#FFFFFF;}
	.st4{font-family:'Montserrat-Bold';}
	.st5{font-size:124.505px;}
	.st6{font-family:'Montserrat-Regular';}
	.st7{font-size:107.5193px;}
</style>
<g>
	<defs>
		<rect id="SVGID_1_" width="900" height="548.6"/>
	</defs>
	<clipPath id="SVGID_2_">
		<use xlink:href="#SVGID_1_"  style="overflow:visible;"/>
	</clipPath>
	<g class="st0">
		<g>
			<g>
				<g>
					<path class="st1" d="M0.6,548.8V65.6c31,19,62,38.1,93,57.2l214.6,132l66.1,40.7c137.3,84.5,274.7,168.9,412,253.4H0.6z"/>
					<path class="st1" d="M2.6,69.2c29.9,18.4,59.8,36.7,89.6,55.1l2.3,1.4L186,182l121,74.4c11.6,7.1,23.2,14.3,34.8,21.4
						c10.5,6.4,20.9,12.9,31.4,19.3c135.3,83.2,270.7,166.5,406,249.7H2.6V69.2 M-1.2,62.4c-0.1,0-0.2,0-0.3,0
						c0,162.8,0,325.6,0,488.4c264.8,0,529.5,0,794.3,0c-0.4-0.8-1.2-1-1.9-1.4c-138.6-85.2-277.1-170.5-415.7-255.7
						c-22-13.6-44.1-27.1-66.1-40.7c-70.8-43.6-141.7-87.2-212.5-130.7C64.8,102.7,33,83.2,1.1,63.6C0.4,63.2-0.2,62.4-1.2,62.4
						L-1.2,62.4z"/>
				</g>
				<g>
					<path class="st1" d="M900.4,483.5c-13.3-8.2-26.5-16.3-39.8-24.5l-475-292.1c-90-55.4-180.1-110.7-270.1-166.1h784.8V483.5z"/>
					<path class="st1" d="M898.4,2.8v477.1c-12.3-7.5-24.5-15.1-36.8-22.6l-102.1-62.8l-109.2-67.2L414.1,182.1l-22-13.6l-5-3.1
						C299,111.2,210.8,57,122.6,2.8H898.4 M902.4-1.2c-264.5,0-528.9,0-793.3,0c0.4,1,1.4,1.2,2.2,1.7
						C204.2,57.6,297.1,114.8,390,171.9c86.1,52.9,172.1,105.9,258.2,158.8c70.4,43.3,140.9,86.6,211.3,130
						c13.5,8.3,27,16.6,40.4,24.9c0.8,0.5,1.6,1,2.4,1.6C902.4,324.3,902.4,161.6,902.4-1.2L902.4-1.2z"/>
				</g>
				<g>
					<path class="st1" d="M109.1-1.2c0.4,1,1.4,1.2,2.2,1.7C204.2,57.6,297.1,114.8,390,171.9c86.1,52.9,172.1,105.9,258.2,158.8
						c70.4,43.3,140.9,86.6,211.3,130c13.5,8.3,27,16.6,40.4,24.9c0.8,0.5,1.6,1,2.4,1.6c0,21.2,0,42.5,0,63.7c-36.5,0-73,0-109.5,0
						c-0.4-0.8-1.2-1-1.9-1.4c-138.6-85.2-277.1-170.5-415.7-255.7c-22-13.6-44.1-27.1-66.1-40.7c-70.8-43.6-141.7-87.2-212.5-130.7
						C64.8,102.7,33,83.2,1.1,63.6c-0.8-0.5-1.5-1.3-2.6-1.1c0-21.2,0-42.5,0-63.7C35.4-1.2,72.2-1.2,109.1-1.2z"/>
					<path class="st1" d="M108.5-0.2c0.5,0.6,1.2,1,1.7,1.3c0.2,0.1,0.4,0.2,0.6,0.3c90.9,55.9,181.9,111.9,272.8,167.8l5.9,3.6
						l15.5,9.5l242.7,149.3l107.7,66.2L859,461.5c13.5,8.3,27,16.6,40.4,24.9c0.6,0.3,1.1,0.7,1.6,1l0.3,0.2v62.2h-108
						c-0.4-0.5-1-0.8-1.4-1c-0.2-0.1-0.3-0.2-0.4-0.2C653,463.3,514.4,378.1,375.8,292.9c-10.4-6.4-20.9-12.8-31.3-19.3
						c-11.6-7.1-23.2-14.3-34.8-21.4l-122-75l-90.6-55.7l-1.8-1.1C64.1,101.1,32.9,81.9,1.6,62.7c-0.2-0.1-0.3-0.2-0.5-0.3
						c-0.4-0.3-0.9-0.7-1.6-0.9V-0.2H108.5 M109.1-1.2c-36.8,0-73.7,0-110.5,0c0,21.2,0,42.5,0,63.7c0.1,0,0.2,0,0.3,0
						c0.9,0,1.6,0.7,2.3,1.2c31.8,19.6,63.7,39.1,95.5,58.7c70.8,43.6,141.7,87.2,212.5,130.7c22,13.6,44.1,27.1,66.1,40.7
						C513.9,378.9,652.4,464.2,791,549.4c0.7,0.4,1.5,0.6,1.9,1.4c36.5,0,73,0,109.5,0c0-21.2,0-42.5,0-63.7
						c-0.8-0.5-1.6-1.1-2.4-1.6c-13.5-8.3-26.9-16.6-40.4-24.9c-70.4-43.3-140.9-86.6-211.3-130C562.1,277.8,476.1,224.9,390,171.9
						C297.1,114.8,204.2,57.6,111.3,0.5C110.5,0,109.5-0.3,109.1-1.2L109.1-1.2z"/>
				</g>
			</g>
			<g>
				<g>
					<path class="st2" d="M0.6,548.8V65.6c31,19,62,38.1,93,57.2l214.6,132l66.1,40.7c137.3,84.5,274.7,168.9,412,253.4H0.6z"/>
					<path class="st2" d="M2.6,69.2c29.9,18.4,59.8,36.7,89.6,55.1l2.3,1.4L186,182l121,74.4c11.6,7.1,23.2,14.3,34.8,21.4
						c10.5,6.4,20.9,12.9,31.4,19.3c135.3,83.2,270.7,166.5,406,249.7H2.6V69.2 M-1.2,62.4c-0.1,0-0.2,0-0.3,0
						c0,162.8,0,325.6,0,488.4c264.8,0,529.5,0,794.3,0c-0.4-0.8-1.2-1-1.9-1.4c-138.6-85.2-277.1-170.5-415.7-255.7
						c-22-13.6-44.1-27.1-66.1-40.7c-70.8-43.6-141.7-87.2-212.5-130.7C64.8,102.7,33,83.2,1.1,63.6C0.4,63.2-0.2,62.4-1.2,62.4
						L-1.2,62.4z"/>
				</g>
				<g>
					<path class="st2" d="M900.4,483.5c-13.3-8.2-26.5-16.3-39.8-24.5l-475-292.1c-90-55.4-180.1-110.7-270.1-166.1h784.8V483.5z"/>
					<path class="st2" d="M898.4,2.8v477.1c-12.3-7.5-24.5-15.1-36.8-22.6l-102.1-62.8l-109.2-67.2L414.1,182.1l-22-13.6l-5-3.1
						C299,111.2,210.8,57,122.6,2.8H898.4 M902.4-1.2c-264.5,0-528.9,0-793.3,0c0.4,1,1.4,1.2,2.2,1.7
						C204.2,57.6,297.1,114.8,390,171.9c86.1,52.9,172.1,105.9,258.2,158.8c70.4,43.3,140.9,86.6,211.3,130
						c13.5,8.3,27,16.6,40.4,24.9c0.8,0.5,1.6,1,2.4,1.6C902.4,324.3,902.4,161.6,902.4-1.2L902.4-1.2z"/>
				</g>
				<g>
					<path class="st3" d="M109.1-1.2c0.4,1,1.4,1.2,2.2,1.7C204.2,57.6,297.1,114.8,390,171.9c86.1,52.9,172.1,105.9,258.2,158.8
						c70.4,43.3,140.9,86.6,211.3,130c13.5,8.3,27,16.6,40.4,24.9c0.8,0.5,1.6,1,2.4,1.6c0,21.2,0,42.5,0,63.7c-36.5,0-73,0-109.5,0
						c-0.4-0.8-1.2-1-1.9-1.4c-138.6-85.2-277.1-170.5-415.7-255.7c-22-13.6-44.1-27.1-66.1-40.7c-70.8-43.6-141.7-87.2-212.5-130.7
						C64.8,102.7,33,83.2,1.1,63.6c-0.8-0.5-1.5-1.3-2.6-1.1c0-21.2,0-42.5,0-63.7C35.4-1.2,72.2-1.2,109.1-1.2z"/>
				</g>
			</g>
		</g>
		<g>
			<path class="st3" d="M740.7,55.5c17.5,0,35,0.3,52.5-0.1c9.3-0.3,12.5,3.3,11.7,12.4c-4.4,48.4-8.5,96.8-12.7,145.2
				c-1.4,15.5-3,30.9-4.2,46.4c-0.5,6.7-3.6,9.5-10.4,9.4c-24.9-0.2-49.8-0.3-74.7,0.1c-8.4,0.1-10.7-3.9-11.4-11.2
				c-2.5-29.4-5.3-58.8-7.9-88.3c-2.8-31.8-5.3-63.5-8.2-95.3c-1.6-18.2-1.4-18.7,16.3-18.7C708,55.5,724.4,55.5,740.7,55.5z
				 M698,89.9c28.2,0,55-0.2,81.8,0.2c7.4,0.1,9.6-1.5,10.5-9.7c0.4-3,0.3-6.2,0.6-10.9c-34.4,0-67.9,0-101.2,0
				c-0.4,1.8-0.2,6.5-0.2,6.5S689.3,89.9,698,89.9z"/>
		</g>
		<g>
			<text transform="matrix(1 0 0 1 33.4798 410.7723)" class="st3 st4 st5">DIVE</text>
			<text transform="matrix(1 0 0 1 37.3394 513.8367)" class="st3 st6 st7">CLUB</text>
		</g>
		<g id="Stroke">
			<path class="st2" d="M897,3v542.6H3V3H897 M900,0H0v548.6h900V0L900,0z"/>
		</g>
	</g>
</g>
</svg>
