<?xml version="1.0" encoding="utf-8"?>
<!-- Generator: Adobe Illustrator 19.1.0, SVG Export Plug-In . SVG Version: 6.00 Build 0)  -->
<svg version="1.1" id="Layer_1" xmlns="http://www.w3.org/2000/svg" xmlns:xlink="http://www.w3.org/1999/xlink" x="0px" y="0px"
	 viewBox="0 0 360 65" enable-background="new 0 0 360 65" xml:space="preserve">
<g>
	<rect x="7.5" y="6.8" fill-rule="evenodd" clip-rule="evenodd" fill="#F26E6F" width="195.7" height="51.3"/>
	<g>
		<path fill="#FFFFFF" d="M16.5,44.8V19.5H32v1.1H17.7v10.6h14v1.1h-14v11.3H32v1.1H16.5z"/>
		<path fill="#FFFFFF" d="M50,44.8l-6.7-8.7l-6.7,8.7h-1.5l7.5-9.4l-7.1-8.9h1.5l6.2,8.1l6.2-8.1h1.5L44,35.4l7.5,9.4H50z"/>
		<path fill="#FFFFFF" d="M56.7,41.7v10.1h-1.1V26.5h1.1v3.1c1.3-1.9,3.7-3.5,6.6-3.5c4.9,0,8.2,3.8,8.2,9.6c0,5.8-3.3,9.7-8.2,9.7
			C60.6,45.3,58.2,43.9,56.7,41.7z M70.3,35.6c0-4.8-2.5-8.6-7-8.6c-2.9,0-5.5,1.7-6.6,3.7v9.8c1.1,1.9,3.8,3.7,6.6,3.7
			C67.8,44.3,70.3,40.5,70.3,35.6z"/>
		<path fill="#FFFFFF" d="M76,35.6c0-5.3,3.7-9.6,8.6-9.6c5.6,0,8.5,4.5,8.5,9.6V36H77.3c0.1,4.5,3,8.2,7.7,8.2c2.6,0,4.7-1,6.4-2.8
			l0.7,0.7c-1.9,1.9-4,3.1-7.1,3.1C79.6,45.3,76,41.2,76,35.6z M84.6,27.1c-4.7,0-7.2,4.3-7.3,7.9h14.6
			C91.9,31.5,89.6,27.1,84.6,27.1z"/>
		<path fill="#FFFFFF" d="M98.6,44.8V26.5h1.1v3.3c1.6-2.2,3.6-3.7,6.3-3.7v1.4c-0.3,0-0.6,0-0.9,0c-1.9,0-4.6,1.9-5.4,3.6v13.8
			H98.6z"/>
		<path fill="#FFFFFF" d="M109.7,22.2c0-0.6,0.5-1.1,1.1-1.1c0.6,0,1.1,0.5,1.1,1.1s-0.5,1.1-1.1,1.1
			C110.2,23.3,109.7,22.8,109.7,22.2z M110.2,44.8V26.5h1.1v18.4H110.2z"/>
		<path fill="#FFFFFF" d="M116.9,35.6c0-5.3,3.7-9.6,8.6-9.6c5.6,0,8.5,4.5,8.5,9.6V36h-15.9c0.1,4.5,3,8.2,7.7,8.2
			c2.6,0,4.7-1,6.4-2.8l0.7,0.7c-1.9,1.9-4,3.1-7.1,3.1C120.6,45.3,116.9,41.2,116.9,35.6z M125.5,27.1c-4.7,0-7.2,4.3-7.3,7.9h14.6
			C132.8,31.5,130.5,27.1,125.5,27.1z"/>
		<path fill="#FFFFFF" d="M152,44.8V32c0-3.8-1.9-5-4.8-5c-2.5,0-5.2,1.6-6.5,3.5v14.3h-1.1V26.5h1.1v2.9c1.4-1.7,4.1-3.3,6.7-3.3
			c3.6,0,5.7,1.7,5.7,6v12.8H152z"/>
		<path fill="#FFFFFF" d="M158.7,35.6c0-5.3,3.3-9.6,8.7-9.6c3,0,4.7,1.1,6.3,3.1l-0.8,0.7c-1.5-2-3.2-2.7-5.4-2.7
			c-4.7,0-7.5,3.8-7.5,8.6s2.8,8.6,7.5,8.6c2.1,0,3.9-0.8,5.4-2.8l0.8,0.7c-1.6,1.9-3.3,3.1-6.3,3.1C162,45.3,158.7,40.9,158.7,35.6
			z"/>
		<path fill="#FFFFFF" d="M177.4,35.6c0-5.3,3.7-9.6,8.6-9.6c5.6,0,8.5,4.5,8.5,9.6V36h-15.9c0.1,4.5,3,8.2,7.7,8.2
			c2.6,0,4.7-1,6.4-2.8l0.7,0.7c-1.9,1.9-4,3.1-7.1,3.1C181.1,45.3,177.4,41.2,177.4,35.6z M186,27.1c-4.7,0-7.2,4.3-7.3,7.9h14.6
			C193.3,31.5,191,27.1,186,27.1z"/>
	</g>
	<g>
		<path fill="#F26E6F" d="M225.3,45.4V27.7l-7.1,17.8h-2.4l-7.1-17.8v17.8h-5.4V20.1h7.6l6.2,15.3l6.2-15.3h7.6v25.4H225.3z"/>
		<path fill="#F26E6F" d="M253.2,45.4l-1.6-4.3h-10.9l-1.6,4.3H233l9.8-25.4h6.8l9.8,25.4H253.2z M246.2,25.5l-4,10.9h7.9
			L246.2,25.5z"/>
		<path fill="#F26E6F" d="M276.8,45.4l-7.7-10.1l-2,2.4v7.8h-5.4V20.1h5.4v11.3l9-11.3h6.7L272.7,32l10.8,13.5H276.8z"/>
		<path fill="#F26E6F" d="M285.9,45.4V20.1h17.9v4.8h-12.5v5.4h12.3v4.8h-12.3v5.7h12.5v4.8H285.9z"/>
		<path fill="#F26E6F" d="M322.4,45.4l-5-9h-4v9h-5.4V20.1h11.9c5.3,0,8.5,3.5,8.5,8.2c0,4.5-2.8,6.9-5.5,7.5l5.7,9.7H322.4z
			 M322.9,28.2c0-2.1-1.6-3.4-3.8-3.4h-5.7v6.8h5.7C321.3,31.7,322.9,30.4,322.9,28.2z"/>
		<path fill="#F26E6F" d="M330.8,41.8l2.9-4.1c1.8,1.9,4.6,3.4,8.1,3.4c3,0,4.4-1.4,4.4-2.8c0-4.5-14.6-1.4-14.6-10.9
			c0-4.2,3.6-7.7,9.6-7.7c4,0,7.4,1.2,9.9,3.5l-3,4c-2.1-1.9-4.8-2.8-7.4-2.8c-2.3,0-3.6,1-3.6,2.5c0,4,14.6,1.3,14.6,10.8
			c0,4.6-3.3,8.1-10.1,8.1C336.6,45.9,333.1,44.2,330.8,41.8z"/>
	</g>
</g>
</svg>
