<?xml version="1.0" encoding="utf-8"?>
<!-- Generator: Adobe Illustrator 19.1.0, SVG Export Plug-In . SVG Version: 6.00 Build 0)  -->
<svg version="1.1" id="Layer_2" xmlns="http://www.w3.org/2000/svg" xmlns:xlink="http://www.w3.org/1999/xlink" x="0px" y="0px"
	 viewBox="0 0 136 63" enable-background="new 0 0 136 63" xml:space="preserve">
<g>
	<g>
		<path fill="#FFFFFF" d="M29.1,18.8h8.3v28.8c0,0,0,13.2-16.7,13.2c-10.6,0-14.6-3.9-14.6-3.9l3.1-6.2c0,0,4.4,3,10.9,3
			s9-3.5,9-10.9c0,0-3,5.1-10.7,5.1S4.3,43.4,4.3,33s7.9-14.7,13.2-14.7s7.9,1.1,11.6,4.6L29.1,18.8z M21.3,26
			c-4.4,0-7.9,3.3-7.9,7.4s3.5,7.4,7.9,7.4s7.9-3.3,7.9-7.4S25.6,26,21.3,26z"/>
		<path fill="#FFFFFF" d="M67.2,7.6v16.6c-2.6-3.7-6.5-6-10.9-6c-7.8,0-14.2,7.4-14.2,16.6c0,9.2,6.3,16.6,14.2,16.6
			c4.4,0,8.3-2.3,10.9-6v5.3h8.6V7.6H67.2z M59.7,43.7c-4.7,0-8.5-4-8.5-9c0-5,3.8-9,8.5-9c3.2,0,6.1,1.9,7.5,4.7
			c0.6,1.3,1,2.7,1,4.2s-0.4,3-1,4.2C65.8,41.8,62.9,43.7,59.7,43.7z"/>
		<rect x="82.5" y="7.6" fill="#FFFFFF" width="9.2" height="7.5"/>
		<rect x="82.5" y="18.8" fill="#FFFFFF" width="9.2" height="31.8"/>
	</g>
	<g>
		<path fill="#FFFFFF" d="M118.8,38.7c0,0-7.9-12.8-7.9-25.8s11.8-10.5,11.8-10.5s5.3,0.6,5.3,8.2C128,19.5,119.4,20.4,118.8,38.7z"
			/>
		<path fill="#FFFFFF" d="M120.5,56.7c0,0-4.1-14.3-12-20.3S97,38.3,97,38.3s-2,4.6,2.1,7.6C104.7,49.9,105.2,44.3,120.5,56.7z"/>
		<path fill="#FFFFFF" d="M125.7,51.4c0,0-3.1-6-1.8-11.7c1.3-5.7,6.2-3.4,6.2-3.4s2.3,0.8,1.5,4.1
			C130.7,44.3,127.4,42.3,125.7,51.4z"/>
	</g>
</g>
</svg>
