<?xml version="1.0" encoding="utf-8"?>
<!-- Generator: Adobe Illustrator 19.2.0, SVG Export Plug-In . SVG Version: 6.00 Build 0)  -->
<svg version="1.1" xmlns="http://www.w3.org/2000/svg" xmlns:xlink="http://www.w3.org/1999/xlink" x="0px" y="0px"
	 viewBox="0 0 373 128.2" style="enable-background:new 0 0 373 128.2;" xml:space="preserve">
<style type="text/css">
	.st0{fill:#0068B3;}
	.st1{fill:#F15C22;}
</style>
<g id="Layer_2">
	<g>
		<path class="st0" d="M72.6,52c9.6,0.3,17.4,7.9,18,17.4h48.3l0-7.3c0-0.4-0.3-0.8-0.7-0.9l-16.4-3.1c-0.4-0.1-0.8-0.5-1-0.8
			l-5-11.8c-0.2-0.4-0.2-0.9,0.1-1.3l9.6-14c0.2-0.3,0.2-0.8-0.1-1.1l-12-12c-0.3-0.3-0.8-0.3-1.1-0.1L98,26.9
			c-0.3,0.2-0.9,0.3-1.3,0.1l-11.4-4.7c-0.4-0.1-0.8-0.6-0.8-1l-3.2-17c-0.1-0.4-0.5-0.7-0.9-0.7h-7.8V52z"/>
		<path class="st0" d="M53.4,69.5c0.6-9.5,8.4-17.1,18-17.4V3.7h-7.8c-0.4,0-0.8,0.3-0.9,0.7l-3.2,17c-0.1,0.4-0.5,0.8-0.8,1
			L47.3,27c-0.4,0.2-0.9,0.1-1.3-0.1l-14.2-9.7c-0.3-0.2-0.8-0.2-1.1,0.1l-12,12c-0.3,0.3-0.3,0.8-0.1,1.1l9.6,14
			c0.2,0.3,0.3,0.9,0.1,1.3l-5,11.8c-0.1,0.4-0.6,0.8-1,0.8L5.8,61.3c-0.4,0.1-0.7,0.5-0.7,0.9l0,7.3H53.4z"/>
		<path class="st0" d="M90.7,70.7C90.7,70.7,90.7,70.7,90.7,70.7c0,6.6-3.4,12.4-8.6,15.8c-0.3,0.3-0.6,0.5-0.9,0.7l-1.4,0.9
			c-0.3,0.2-0.5,0.7-0.3,1.1l11.9,28.6c0.2,0.4,0.6,0.5,0.9,0.3l5.8-3.1c0.4-0.2,0.9-0.2,1.2,0l13,8.9c0.3,0.2,0.8,0.2,1.1-0.1
			l12-12c0.3-0.3,0.3-0.8,0.1-1.1l-9.1-13.3c-0.2-0.3-0.3-0.9-0.1-1.3l5-12.5c0.1-0.4,0.5-0.8,1-0.8l16-3c0.4-0.1,0.7-0.5,0.7-0.9
			l0-8.4H90.7z"/>
		<path class="st0" d="M64.3,88.1l-1.4-0.9c-0.3-0.2-0.6-0.4-0.9-0.7c-5.2-3.3-8.6-9.1-8.6-15.8c0,0,0,0,0,0H5.1l0,8.4
			c0,0.4,0.3,0.8,0.7,0.9l16,3c0.4,0.1,0.8,0.5,1,0.8l5,12.5c0.2,0.4,0.1,0.9-0.1,1.3l-9.1,13.3c-0.2,0.3-0.2,0.8,0.1,1.1l12,12
			c0.3,0.3,0.8,0.3,1.1,0.1l13-8.9c0.3-0.2,0.9-0.2,1.2,0l5.8,3.1c0.4,0.2,0.8,0,0.9-0.3l11.9-28.6C64.8,88.7,64.6,88.3,64.3,88.1z"
			/>
	</g>
	<path class="st1" d="M72,53.3c-9.6,0-17.3,7.8-17.3,17.3c0,9.6,7.8,17.3,17.3,17.3c9.6,0,17.3-7.8,17.3-17.3
		C89.3,61,81.6,53.3,72,53.3z M79.9,81.9l-7.8-6l-7.6,5.5l2.8-9.1l-7.8-6l9.6,0l3-9.7l3,9.7l10.4,0l-8.5,6.1L79.9,81.9z"/>
</g>
<g id="Layer_1">
	<g>
		<g>
			<path class="st0" d="M155.9,31.4h6.1v27.5h-6.1V31.4z"/>
			<path class="st0" d="M173.9,47.1v11.8H168V37.7h5.9v2.4c1.8-1.8,3.8-2.7,6-2.7c2.2,0,4.1,0.8,5.6,2.4s2.3,3.7,2.3,6.3v12.8h-5.9
				V46.9c0-3.2-1.2-4.9-3.6-4.9c-1.2,0-2.2,0.4-3.1,1.3C174.3,44.2,173.9,45.4,173.9,47.1z"/>
			<path class="st0" d="M201.5,59.2c-2.5,0-4.7-1.1-6.7-3.2c-2-2.1-2.9-4.8-2.9-7.9c0-3.1,1-5.7,2.9-7.7c1.9-2,4.2-3,6.7-3
				s4.7,0.9,6.3,2.7V29.7h5.9v29.2h-5.9v-2.8C206.1,58.2,204,59.2,201.5,59.2z M197.8,48.4c0,1.7,0.5,3.1,1.5,4.2
				c1,1.1,2.2,1.6,3.6,1.6c1.4,0,2.5-0.5,3.5-1.6c1-1.1,1.4-2.5,1.4-4.2c0-1.7-0.5-3.1-1.4-4.3s-2.1-1.7-3.5-1.7
				c-1.4,0-2.6,0.6-3.6,1.7C198.3,45.2,197.8,46.7,197.8,48.4z"/>
			<path class="st0" d="M222.9,67.2c-2.1,0-4-0.8-5.9-2.5l2.7-4.4c1,1,2,1.5,3.1,1.5c0.5,0,1-0.3,1.4-0.8c0.4-0.5,0.6-1.1,0.6-1.7
				c0-0.6-2.7-7.8-8.2-21.5h6.3l5.1,13.2l5.1-13.2h6.3l-9.8,24.9c-0.6,1.4-1.5,2.6-2.7,3.4C225.7,66.8,224.4,67.2,222.9,67.2z"/>
			<path class="st0" d="M276.5,55.1c-2.8,2.7-6.2,4.1-10.3,4.1c-4.1,0-7.5-1.4-10.3-4.1c-2.8-2.7-4.2-6.1-4.2-10.1
				c0-4,1.4-7.4,4.2-10.1c2.8-2.7,6.2-4.1,10.3-4.1c4.1,0,7.5,1.4,10.3,4.1s4.2,6.1,4.2,10.1C280.6,49,279.3,52.4,276.5,55.1z
				 M274.4,45c0-2.4-0.8-4.5-2.4-6.3c-1.6-1.7-3.5-2.6-5.8-2.6c-2.3,0-4.2,0.9-5.8,2.6s-2.4,3.8-2.4,6.3c0,2.4,0.8,4.5,2.4,6.2
				c1.6,1.7,3.5,2.6,5.8,2.6c2.3,0,4.2-0.9,5.8-2.6C273.6,49.5,274.4,47.4,274.4,45z"/>
			<path class="st0" d="M297.5,37.4c2.5,0,4.7,1,6.6,3.1s2.9,4.6,2.9,7.8c0,3.1-1,5.7-2.9,7.8c-1.9,2.1-4.2,3.1-6.8,3.1
				c-2.6,0-4.7-1-6.2-3.1v10.4h-5.9V37.7h5.9v2.4C292.9,38.3,295.1,37.4,297.5,37.4z M291.1,48.3c0,1.7,0.5,3.1,1.4,4.2
				c1,1.1,2.1,1.6,3.5,1.6c1.4,0,2.6-0.5,3.6-1.6c1-1.1,1.5-2.5,1.5-4.2c0-1.7-0.5-3.1-1.5-4.3c-1-1.2-2.2-1.7-3.6-1.7
				c-1.4,0-2.6,0.6-3.5,1.7S291.1,46.6,291.1,48.3z"/>
			<path class="st0" d="M329.7,55.8c-2.4,2.3-5.2,3.4-8.4,3.4c-3.2,0-5.9-1-8-3c-2.1-2-3.1-4.6-3.1-8c0-3.3,1.1-6,3.2-7.9
				s4.7-2.9,7.6-2.9s5.4,0.9,7.4,2.6c2,1.8,3,4.2,3,7.2v3.1H316c0.2,1.2,0.8,2.1,1.8,2.8c1,0.7,2.2,1.1,3.5,1.1
				c2.1,0,3.8-0.7,5.1-2.1L329.7,55.8z M324.1,43.3c-0.8-0.7-1.8-1-3-1c-1.2,0-2.2,0.4-3.2,1.1c-1,0.7-1.5,1.7-1.7,2.9h9.3
				C325.3,44.9,324.9,44,324.1,43.3z"/>
			<path class="st0" d="M341.6,47.1v11.8h-5.9V37.7h5.9v2.4c1.8-1.8,3.8-2.7,6-2.7c2.2,0,4.1,0.8,5.6,2.4s2.3,3.7,2.3,6.3v12.8h-5.9
				V46.9c0-3.2-1.2-4.9-3.6-4.9c-1.2,0-2.2,0.4-3.1,1.3C342,44.2,341.6,45.4,341.6,47.1z"/>
		</g>
		<g>
			<path class="st0" d="M156.3,97.5V70h4.6v11.9h13.6V70h4.6v27.5h-4.6V86.2h-13.6v11.2H156.3z"/>
			<path class="st0" d="M203.1,97.5h-4v-2.8c-1.7,2.1-4,3.1-7,3.1c-2.2,0-4-0.6-5.4-1.8c-1.4-1.2-2.1-2.9-2.1-4.9s0.8-3.6,2.3-4.6
				c1.5-1,3.6-1.5,6.2-1.5h5.7v-0.8c0-2.8-1.5-4.2-4.6-4.2c-1.9,0-4,0.7-6,2.1l-2-2.8c2.5-2,5.4-3,8.6-3c2.5,0,4.5,0.6,6,1.9
				c1.6,1.2,2.3,3.2,2.3,5.9V97.5z M198.7,89.7v-1.8h-5c-3.2,0-4.8,1-4.8,3c0,1,0.4,1.8,1.2,2.3c0.8,0.5,1.9,0.8,3.3,0.8
				c1.4,0,2.6-0.4,3.7-1.2C198.2,92.1,198.7,91,198.7,89.7z"/>
			<path class="st0" d="M220.2,80.7c-2.2,0-3.8,0.7-4.9,2.1c-1.1,1.4-1.7,3.3-1.7,5.7v9h-4.4V76.6h4.4v4.2c0.7-1.3,1.7-2.4,2.9-3.2
				c1.2-0.8,2.5-1.3,3.9-1.3l0,4.4C220.4,80.7,220.3,80.7,220.2,80.7z"/>
			<path class="st0" d="M226.5,94.8c-2-2-2.9-4.6-2.9-7.9c0-3.2,1-5.8,3-7.8c2-1.9,4.4-2.9,7.2-2.9c2.8,0,5,1.2,6.7,3.5V68.3h4.4
				v29.2h-4.4v-3.1c-1.6,2.3-4,3.5-7.1,3.5C230.7,97.8,228.4,96.8,226.5,94.8z M227.9,87.1c0,2,0.6,3.6,1.9,4.9
				c1.3,1.3,2.8,1.9,4.5,1.9s3.2-0.6,4.4-1.9c1.2-1.3,1.8-2.9,1.8-4.9c0-2-0.6-3.7-1.8-5c-1.2-1.3-2.7-2-4.4-2c-1.8,0-3.3,0.7-4.5,2
				C228.5,83.4,227.9,85.1,227.9,87.1z"/>
			<path class="st0" d="M261,97.5h-5l-7.2-20.9h4.6l5.2,15.8l5.2-15.8h4.6l5.2,15.8l5.2-15.8h4.6L276,97.5h-5l-5-14.3L261,97.5z"/>
			<path class="st0" d="M303.8,97.5h-4v-2.8c-1.7,2.1-4,3.1-7,3.1c-2.2,0-4-0.6-5.4-1.8c-1.4-1.2-2.1-2.9-2.1-4.9s0.8-3.6,2.3-4.6
				c1.5-1,3.6-1.5,6.2-1.5h5.7v-0.8c0-2.8-1.5-4.2-4.6-4.2c-1.9,0-4,0.7-6,2.1l-2-2.8c2.5-2,5.4-3,8.6-3c2.5,0,4.5,0.6,6,1.9
				c1.6,1.2,2.3,3.2,2.3,5.9V97.5z M299.4,89.7v-1.8h-5c-3.2,0-4.8,1-4.8,3c0,1,0.4,1.8,1.2,2.3c0.8,0.5,1.9,0.8,3.3,0.8
				c1.4,0,2.6-0.4,3.7-1.2C298.9,92.1,299.4,91,299.4,89.7z"/>
			<path class="st0" d="M320.9,80.7c-2.2,0-3.8,0.7-4.9,2.1c-1.1,1.4-1.7,3.3-1.7,5.7v9H310V76.6h4.4v4.2c0.7-1.3,1.7-2.4,2.9-3.2
				c1.2-0.8,2.5-1.3,3.9-1.3l0,4.4C321.1,80.7,321,80.7,320.9,80.7z"/>
			<path class="st0" d="M345,88.9h-16.4c0.1,1.5,0.8,2.7,2.1,3.7c1.3,0.9,2.8,1.4,4.4,1.4c2.6,0,4.6-0.8,6-2.5l2.5,2.8
				c-2.3,2.3-5.2,3.5-8.8,3.5c-2.9,0-5.4-1-7.5-2.9c-2.1-2-3.1-4.6-3.1-7.9c0-3.3,1-5.9,3.1-7.8c2.1-1.9,4.6-2.9,7.4-2.9
				s5.3,0.9,7.2,2.6s3,4.1,3,7.1V88.9z M328.6,85.5h12c0-1.8-0.5-3.1-1.6-4c-1.1-0.9-2.5-1.4-4.1-1.4s-3.1,0.5-4.3,1.5
				C329.3,82.5,328.6,83.8,328.6,85.5z"/>
		</g>
	</g>
</g>
</svg>
