<?xml version="1.0" encoding="utf-8"?>
<!-- Generator: Adobe Illustrator 19.1.0, SVG Export Plug-In . SVG Version: 6.00 Build 0)  -->
<svg version="1.1" id="Layer_1" xmlns="http://www.w3.org/2000/svg" xmlns:xlink="http://www.w3.org/1999/xlink" x="0px" y="0px"
	 viewBox="0 0 862 276" enable-background="new 0 0 862 276" xml:space="preserve">
<g>
	<g>
		<g>
			<path fill="#FFFFFF" d="M517.1,140.6c0-37.7,14.2-72,37.5-98c1.4-1.6,1.4-4.1-0.1-5.6l-15.8-15.8c-1.6-1.6-4.3-1.6-5.9,0.1
				C503.1,54,486.8,96,486.8,140.6c0,47.3,18.4,91.8,51.9,125.2c0,0,0,0,0,0c1.6,1.6,4.1,1.5,5.7,0l15.7-15.7c1.6-1.6,1.6-4.2,0-5.7
				C533.5,217.8,517.1,181.1,517.1,140.6z"/>
		</g>
		<g>
			<path fill="#FFFFFF" d="M810.6,140.6c0,40.5-16.4,77.2-43,103.7c-1.6,1.6-1.6,4.2,0,5.7l15.7,15.7c1.6,1.6,4.1,1.6,5.7,0
				c0,0,0,0,0,0c33.4-33.4,51.9-77.9,51.9-125.2c0-44.5-16.3-86.6-46.2-119.3c-1.6-1.7-4.2-1.7-5.9-0.1L773.2,37
				c-1.5,1.5-1.6,4-0.1,5.6C796.4,68.5,810.6,102.9,810.6,140.6z"/>
		</g>
	</g>
	<g>
		<g>
			<path fill="#C62032" d="M663.9,247.6c-59,0-107-48-107-107s48-107,107-107s107,48,107,107S722.9,247.6,663.9,247.6z"/>
			<path fill="#FFFFFF" d="M663.9,43.2c53.8,0,97.4,43.6,97.4,97.4S717.7,238,663.9,238c-53.8,0-97.4-43.6-97.4-97.4
				S610,43.2,663.9,43.2 M663.9,23.9c-31.2,0-60.4,12.1-82.5,34.2c-22,22-34.2,51.3-34.2,82.5s12.1,60.4,34.2,82.5
				c22,22,51.3,34.2,82.5,34.2c31.2,0,60.4-12.1,82.5-34.2c22-22,34.2-51.3,34.2-82.5s-12.1-60.4-34.2-82.5
				C724.3,36.1,695,23.9,663.9,23.9L663.9,23.9z"/>
		</g>
		<g display="none">
			<defs>
				<circle id="SVGID_1_" cx="663.9" cy="140.6" r="97.4"/>
			</defs>
			<clipPath id="SVGID_2_" display="inline">
				<use xlink:href="#SVGID_1_"  overflow="visible"/>
			</clipPath>
			<g display="inline" clip-path="url(#SVGID_2_)">
				<path fill="#C62032" d="M664.5,68.1l104.4,75.2c0,0-0.4,45.3-46.1,86.4c-20.6,18.5-40.9,13.7-40.9,13.7l-58.7-42.1l40.7-62.1
					L664.5,68.1z"/>
				<path opacity="0.1" d="M664.5,68.1l104.4,75.2c0,0-0.4,45.3-46.1,86.4c-20.6,18.5-40.9,13.7-40.9,13.7l-58.7-42.1l40.7-62.1
					L664.5,68.1z"/>
			</g>
		</g>
		<path fill="#FFFFFF" d="M665.3,69l41.2,133.5c0.4,1.4-1.2,2.5-2.4,1.6l-107.6-82.5c-1.1-0.9-0.5-2.7,0.9-2.7l137,0
			c1.5,0,2.1,1.9,0.9,2.7l-110.3,79.6c-1.2,0.8-2.8-0.3-2.3-1.7L662.4,69C662.8,67.6,664.8,67.6,665.3,69z"/>
	</g>
</g>
<g>
	<g>
		<path fill="#FFFFFF" d="M198.9,229.5h4.1v24.3h-4.1V229.5z"/>
		<path fill="#FFFFFF" d="M227.9,229.5h4.1v24.3h-4.5l-13.8-17.7v17.7h-4.1v-24.3h4.1l14.1,18.2V229.5z"/>
		<path fill="#FFFFFF" d="M257.2,232.7c2.3,2.1,3.5,5.1,3.5,8.9s-1.1,6.8-3.4,9c-2.3,2.2-5.8,3.3-10.4,3.3h-8.1v-24.3h8.3
			C251.5,229.5,254.9,230.6,257.2,232.7z M256.6,241.7c0-5.6-3.2-8.3-9.6-8.3h-4.1V250h4.6c2.9,0,5.2-0.7,6.8-2.1
			C255.8,246.5,256.6,244.4,256.6,241.7z"/>
		<path fill="#FFFFFF" d="M275.6,253.9h-4.2v-9.6l-9-14.7h4.5l6.6,11.1l6.6-11.1h4.5l-9,14.7V253.9z"/>
		<path fill="#FFFFFF" d="M307.9,253.9h-10.6v-24.3h9.5c1.6,0,3.1,0.2,4.3,0.6c1.2,0.4,2.1,0.9,2.7,1.6c1.1,1.3,1.7,2.7,1.7,4.2
			c0,1.9-0.6,3.3-1.8,4.2c-0.4,0.3-0.7,0.5-0.9,0.6s-0.5,0.2-0.9,0.4c1.5,0.3,2.7,1,3.6,2c0.9,1,1.3,2.3,1.3,3.8
			c0,1.7-0.6,3.2-1.7,4.5C313.5,253.1,311.2,253.9,307.9,253.9z M301.3,239.6h5.2c3,0,4.5-1,4.5-3c0-1.2-0.4-2-1.1-2.5
			s-1.8-0.8-3.3-0.8h-5.3V239.6z M301.3,250.1h6.4c1.5,0,2.7-0.2,3.5-0.7c0.8-0.5,1.2-1.4,1.2-2.7c0-2.2-1.7-3.2-5.2-3.2h-5.9V250.1
			z"/>
		<path fill="#FFFFFF" d="M341.2,237.4c0,4-1.8,6.5-5.3,7.6l6.4,8.8h-5.2l-5.8-8.2h-5.4v8.2h-4.1v-24.3h9c3.7,0,6.4,0.6,8,1.9
			S341.2,234.7,341.2,237.4z M335.7,240.9c0.8-0.7,1.3-1.9,1.3-3.5c0-1.6-0.4-2.7-1.3-3.3c-0.9-0.6-2.4-0.9-4.6-0.9h-5.2v8.7h5.1
			C333.3,242,334.9,241.6,335.7,240.9z"/>
		<path fill="#FFFFFF" d="M347.1,229.5h4.1v24.3h-4.1V229.5z"/>
		<path fill="#FFFFFF" d="M374.8,242h4.1v8.3c-2.3,2.5-5.6,3.8-9.8,3.8c-3.6,0-6.6-1.2-9-3.5c-2.4-2.4-3.6-5.4-3.6-9
			c0-3.6,1.2-6.6,3.7-9c2.5-2.4,5.5-3.6,9-3.6c3.5,0,6.4,1,8.7,3.1l-2.2,3.1c-1-0.8-1.9-1.4-2.9-1.7c-1-0.3-2.1-0.5-3.4-0.5
			c-2.5,0-4.5,0.8-6.2,2.4c-1.7,1.6-2.5,3.7-2.5,6.3c0,2.6,0.8,4.7,2.4,6.2c1.6,1.6,3.6,2.3,5.9,2.3c2.3,0,4.2-0.5,5.8-1.5V242z"/>
		<path fill="#FFFFFF" d="M387.5,248.3l-2.4,5.5h-4.4l10.7-24.3h4.4l10.7,24.3h-4.4l-2.4-5.5H387.5z M398,244.5l-4.4-10l-4.4,10H398
			z"/>
		<path fill="#FFFFFF" d="M428.3,232.7c2.3,2.1,3.5,5.1,3.5,8.9s-1.1,6.8-3.4,9c-2.3,2.2-5.8,3.3-10.4,3.3h-8.1v-24.3h8.3
			C422.6,229.5,425.9,230.6,428.3,232.7z M427.6,241.7c0-5.6-3.2-8.3-9.6-8.3H414V250h4.6c2.9,0,5.2-0.7,6.8-2.1
			C426.9,246.5,427.6,244.4,427.6,241.7z"/>
		<path fill="#FFFFFF" d="M454.1,229.5v3.9h-13v6.4h11.7v3.7h-11.7v6.5h13.4v3.9h-17.5v-24.3H454.1z"/>
	</g>
</g>
<g>
	<g>
		<path fill="#FFFFFF" d="M126.9,172.2c0,13.9-3.4,24-10.3,30.3c-6.9,6.3-17.5,9.4-32,9.4h-3.2c-14.4,0-25.1-3.1-32-9.4
			c-6.9-6.3-10.3-16.4-10.3-30.3v-44.8c0-13.9,3.4-24,10.3-30.3c6.9-6.3,17.5-9.4,32-9.4h3.2c14.4,0,25.1,3.2,32,9.4
			c6.9,6.3,10.3,16.4,10.3,30.3V172.2z M105.8,177.2v-54.7c0-10.8-6.2-16.2-18.6-16.2h-8.2c-12.4,0-18.6,5.4-18.6,16.2v54.7
			c0,10.8,6.2,16.2,18.6,16.2h8.2C99.5,193.4,105.8,188,105.8,177.2z"/>
		<path fill="#FFFFFF" d="M172.9,254.3h-21.1V87.7h19.9v6c5.1-4,11.8-6,19.9-6h4c14.6,0,25.3,3.1,32.1,9.3
			c6.8,6.2,10.2,16.4,10.2,30.5v44.8c0,13.9-3.4,24-10.3,30.3c-6.9,6.3-17.5,9.4-32,9.4h-22.6V254.3z M189.1,106.4
			c-5.5,0-9.5,1.5-12.2,4.4c-2.7,2.9-4,6-4,9.3v73.4H198c12.4,0,18.6-5.4,18.6-16.2v-54.7c0-10.8-6.2-16.2-18.6-16.2H189.1z"/>
		<path fill="#FFFFFF" d="M334.5,212h-32.1c-14.6,0-25.3-3.1-32.1-9.3c-6.8-6.2-10.2-16.4-10.2-30.5v-44.8c0-14.3,3.1-24.4,9.2-30.6
			c6.1-6.1,16.3-9.2,30.6-9.2h6.7c23.9,0,35.8,12.8,35.8,38.5v32.3h-61.2v18.6c0,10.8,6.2,16.2,18.6,16.2h34.6V212z M281.3,122.5
			v17.4h40.5v-18.6c0-4.3-1.4-7.9-4.2-10.7c-2.8-2.8-6.4-4.2-10.7-4.2h-9.4c-6,0-10.2,1.4-12.6,4.1
			C282.5,113.2,281.3,117.2,281.3,122.5z"/>
		<path fill="#FFFFFF" d="M387.2,212h-21.1V87.7H386v6c5.1-4,11.8-6,19.9-6h6.5c13.4,0,23.4,3.2,30,9.4c6.5,6.3,9.8,16.4,9.8,30.3
			V212H431v-89.5c0-5-1.5-8.9-4.4-11.8c-2.9-2.9-6.8-4.4-11.8-4.4h-11.4c-5.5,0-9.5,1.5-12.2,4.4c-2.7,2.9-4,6-4,9.3V212z"/>
	</g>
</g>
</svg>
