<?xml version="1.0" encoding="utf-8"?>
<!-- Generator: Adobe Illustrator 19.0.1, SVG Export Plug-In . SVG Version: 6.00 Build 0)  -->
<svg version="1.1" id="Layer_1" xmlns="http://www.w3.org/2000/svg" xmlns:xlink="http://www.w3.org/1999/xlink" x="0px" y="0px"
	 viewBox="0 0 854 296" enable-background="new 0 0 854 296" xml:space="preserve">
<g>
	<g>
		<path fill="#FFFFFF" d="M508.1,145.6c0-37.7,14.2-72,37.5-98c1.4-1.6,1.4-4.1-0.1-5.6l-15.8-15.8c-1.6-1.6-4.3-1.6-5.9,0.1
			C494.1,59,477.8,101,477.8,145.6c0,47.3,18.4,91.8,51.9,125.2c0,0,0,0,0,0c1.6,1.6,4.1,1.5,5.7,0l15.7-15.7c1.6-1.6,1.6-4.2,0-5.7
			C524.5,222.8,508.1,186.1,508.1,145.6z"/>
	</g>
	<g>
		<path fill="#FFFFFF" d="M801.6,145.6c0,40.5-16.4,77.2-43,103.7c-1.6,1.6-1.6,4.2,0,5.7l15.7,15.7c1.6,1.6,4.1,1.6,5.7,0
			c0,0,0,0,0,0c33.4-33.4,51.9-77.9,51.9-125.2c0-44.5-16.3-86.6-46.2-119.3c-1.6-1.7-4.2-1.7-5.9-0.1L764.2,42
			c-1.5,1.5-1.6,4-0.1,5.6C787.4,73.5,801.6,107.9,801.6,145.6z"/>
	</g>
</g>
<g>
	<path fill="#C62032" d="M654.9,252.6c-59,0-107-48-107-107s48-107,107-107s107,48,107,107S713.9,252.6,654.9,252.6z"/>
	<path fill="#FFFFFF" d="M654.9,48.2c53.8,0,97.4,43.6,97.4,97.4S708.7,243,654.9,243c-53.8,0-97.4-43.6-97.4-97.4
		S601,48.2,654.9,48.2 M654.9,28.9c-31.2,0-60.4,12.1-82.5,34.2c-22,22-34.2,51.3-34.2,82.5s12.1,60.4,34.2,82.5
		c22,22,51.3,34.2,82.5,34.2c31.2,0,60.4-12.1,82.5-34.2c22-22,34.2-51.3,34.2-82.5s-12.1-60.4-34.2-82.5
		C715.3,41.1,686,28.9,654.9,28.9L654.9,28.9z"/>
</g>
<path fill="#FFFFFF" d="M656.3,74l41.2,133.5c0.4,1.4-1.2,2.5-2.4,1.6l-107.6-82.5c-1.1-0.9-0.5-2.7,0.9-2.7l137,0
	c1.5,0,2.1,1.9,0.9,2.7l-110.3,79.6c-1.2,0.8-2.8-0.3-2.3-1.7L653.4,74C653.8,72.6,655.8,72.6,656.3,74z"/>
<g>
	<text transform="matrix(1 0 0 1 186.2529 258.855)" fill="#FFFFFF" font-family="'Montserrat-Regular'" font-size="34.7836px">INDY BRIGADE</text>
</g>
<g>
	
		<text transform="matrix(1 0 0 1 12.7161 217.0275)" fill="#FFFFFF" font-family="'ShareTech-Regular'" font-size="248.648px" letter-spacing="-12">open</text>
</g>
</svg>
